{
	"asset":{
		"version":"2.0",
		"generator":"Created using the official Cinema 4D glTF Exporter 1.000x284978"
	},
	"scenes":[{
		"nodes":[0]
	}],
	"nodes":[{
		"name":"Subdivision Surface",
		"children":[1]
	},
	{
		"name":"default001",
		"translation":[0.0,
		90.0,
		0.0],
		"rotation":[0.0,
		0.0,
		0.0,
		-1.0],
		"scale":[1.0,
		1.0,
		1.0],
		"mesh":0
	}],
	"meshes":[{
		"name":"default001",
		"primitives":[{
			"attributes":{
				"POSITION":1,
				"NORMAL":2
			},
			"indices":0,
			"material":0
		}]
	}],
	"accessors":[{
		"bufferView":0,
		"type":"SCALAR",
		"componentType":5123,
		"count":93024,
		"byteOffset":0,
		"min":[0],
		"max":[16771]
	},
	{
		"bufferView":1,
		"type":"VEC3",
		"componentType":5126,
		"count":16772,
		"byteOffset":0,
		"min":[-55.84624481201172,
		-90.37049865722656,
		-3.6992664337158205],
		"max":[62.75541305541992,
		90.52552795410156,
		48.00736618041992]
	},
	{
		"bufferView":1,
		"type":"VEC3",
		"componentType":5126,
		"count":16772,
		"byteOffset":12,
		"min":[-0.9999877214431763,
		-0.9999687671661377,
		-0.9999834895133972],
		"max":[0.999923050403595,
		0.9998642206192017,
		0.9999994039535523]
	}],
	"bufferViews":[{
		"buffer":0,
		"target":34963,
		"byteOffset":0,
		"byteLength":186048
	},
	{
		"buffer":0,
		"target":34962,
		"byteOffset":186048,
		"byteLength":402528,
		"byteStride":24
	}],
	"buffers":[{
		"uri":"data:application/octet-stream;base64,",
		"byteLength":588576
	}],
	"materials":[{
		"pbrMetallicRoughness":{
			"baseColorFactor":[0.8,
			0.15199999999999998,
			0.476,
			1.0],
			"metallicFactor":0.0,
			"roughnessFactor":0.5
		},
		"emissiveFactor":[0.0,
		0.0,
		0.0],
		"alphaMode":"OPAQUE",
		"doubleSided":true,
		"name":"Mat"
	}]
}